<svg width="18" height="18" viewBox="0 0 18 18" fill="none" xmlns="http://www.w3.org/2000/svg">
<path d="M18 4.50881C17.4124 4.50881 16.8515 4.42661 16.3173 4.26223C15.7831 4.09785 15.3024 3.87476 14.875 3.59295C14.3809 3.26419 13.9602 2.86497 13.613 2.3953C13.2658 1.92564 13.0321 1.409 12.9119 0.845402C12.8852 0.716242 12.8618 0.581213 12.8418 0.440313C12.8217 0.299414 12.8117 0.152641 12.8117 0H9.46636V8.03131V12.4344C9.46636 13.0215 9.26938 13.544 8.87541 14.002C8.48145 14.4599 7.98399 14.7769 7.38303 14.953C7.23613 15 7.08255 15.0352 6.92229 15.0587C6.76204 15.0822 6.5951 15.0939 6.42149 15.0939C6.39478 15.0939 6.36807 15.0939 6.34136 15.0939C6.31465 15.0939 6.28795 15.0939 6.26124 15.0939C6.0075 15.0822 5.76377 15.044 5.53007 14.9795C5.29636 14.9149 5.07935 14.8239 4.87903 14.7065C4.43832 14.4834 4.08442 14.1751 3.81733 13.7818C3.55024 13.3885 3.41001 12.9511 3.39666 12.4697C3.3833 11.7299 3.67377 11.0959 4.26805 10.5675C4.86233 10.0391 5.58015 9.77495 6.42149 9.77495C6.5951 9.77495 6.76204 9.78669 6.92229 9.81018C7.08255 9.83366 7.23613 9.86301 7.38303 9.89824V6.92172C7.22277 6.89824 7.06252 6.88063 6.90226 6.86889C6.742 6.85714 6.58175 6.85127 6.42149 6.85127C5.50002 6.85127 4.62195 7.01566 3.78728 7.34442C2.95261 7.67319 2.22145 8.14286 1.59378 8.75342C1.12636 9.21135 0.759108 9.72505 0.492015 10.2945C0.224921 10.864 0.0646648 11.4599 0.011246 12.0822C-0.0421727 12.8924 0.0947128 13.6673 0.421902 14.407C0.749092 15.1468 1.23988 15.8043 1.89426 16.3796C1.98774 16.4618 2.08456 16.5411 2.18472 16.6174C2.28488 16.6937 2.38838 16.7671 2.49522 16.8376C3.05611 17.2133 3.67043 17.501 4.33816 17.7006C5.0059 17.9002 5.70034 18 6.42149 18C6.58175 18 6.742 17.9941 6.90226 17.9824C7.06252 17.9706 7.22277 17.9589 7.38303 17.9472C8.06412 17.8532 8.70848 17.6742 9.31612 17.41C9.92376 17.1458 10.468 16.8023 10.9487 16.3796C11.5497 15.8513 12.0138 15.2495 12.341 14.5744C12.6681 13.8992 12.8317 13.1918 12.8317 12.4521L12.8117 5.88258C13.0922 6.07045 13.386 6.24364 13.6931 6.40215C14.0003 6.56067 14.3141 6.7045 14.6346 6.83366L14.6947 6.85127C15.2155 7.03914 15.7531 7.18297 16.3073 7.28278C16.8615 7.38258 17.4257 7.43249 18 7.43249V4.50881Z" fill="white"/>
</svg>
